<svg width="220" height="55" xmlns="http://www.w3.org/2000/svg" class="font">
 <!---->
 <defs>
  <!---->
  <linearGradient y2="0%" x2="100%" y1="0%" x1="0%" id="3a1f7bd5-a259-421f-90e0-1ad23548ae2e" gradientTransform="rotate(25)">
   <stop stop-color="#41E296" offset="0%"/>
   <stop stop-color="#00C4EE" offset="100%"/>
  </linearGradient>
 </defs>

 <!---->
 <!---->
 <g>
  <title>background</title>
  <rect fill="none" id="canvas_background" height="57" width="222" y="-1" x="-1"/>
 </g>
 <g>
  <title>Layer 1</title>
  <g transform="matrix(3.6968575382735724,0,0,3.6968575382735724,38.76079764918247,113.97488029969188) " fill="url(#3a1f7bd5-a259-421f-90e0-1ad23548ae2e)" id="ae1d8f47-ac5c-4756-9d78-7d29f794a626">
   <path id="svg_2" d="m-2.87419,-28.14169c0,-1.95 -1.99,-2.23 -3.23,-2.23c-1.46,0 -2.38,0.38 -3.32,0.77c0,0.14 0.31,0.38 0.45,0.38c0.18,0 0.75,-0.55 1.93,-0.76c-1.23,2.4 -2.69,6.93 -2.97,7.86c-0.07,0.23 -0.2,0.57 -0.2,0.79c0,0.38 0.37,0.68 0.83,0.68c0.42,-1.45 0.83,-3 1.26,-4.51c0.31,0 0.69,-0.02 1.05,-0.02c1.6,0 3.53,0.24 3.53,1.77c0,1.69 -2.35,3.32 -5.57,3.32c-0.96,0 -1.19,-0.14 -1.32,-0.14c-0.04,0 -0.07,0.01 -0.07,0.04c0,0.8 0.53,1.12 1.55,1.12c2.09,0 6.07,-1.36 6.07,-4.09c0,-0.88 -0.42,-2.09 -3.2,-2.25c1.45,-0.24 3.21,-0.9 3.21,-2.73zm-3.21,-1.94c1.21,0 2.37,0.37 2.37,1.82c0,2.05 -2.28,2.71 -4.33,2.78c0.49,-1.67 1.03,-3.27 1.7,-4.58c0.08,-0.02 0.17,-0.02 0.26,-0.02zm7.82,6c-0.54,1.05 -1.68,3.65 -2.55,3.65c-0.46,0 -0.51,-0.7 -0.51,-0.94c0,-0.94 0.63,-2.34 0.94,-2.81c-0.15,-0.17 -0.42,-0.28 -0.52,-0.28c-0.42,0 -1.23,2.11 -1.23,3.18c0,0.75 0.42,1.41 1.05,1.41c0.7,0 1.32,-0.81 1.84,-1.74c-0.06,0.24 -0.1,0.48 -0.1,0.7c0,0.58 0.24,1.04 0.98,1.04c0.99,0 2.21,-1.05 2.81,-2.56l-0.18,-0.13c-0.69,1.44 -1.75,2.27 -2.34,2.27c-0.33,0 -0.46,-0.22 -0.46,-0.56c0,-0.94 0.94,-2.72 0.94,-2.87c0,-0.24 -0.52,-0.34 -0.67,-0.36zm3.75,0.01c1.65,-0.99 3.19,-4.03 3.19,-5.33c0,-0.4 -0.14,-0.89 -0.45,-0.89c-1.15,0 -4.35,6.44 -4.35,9.26c0,1.08 0.47,1.76 1.44,1.76c0.98,0 1.72,-0.7 2.23,-1.55c0.14,0.03 0.29,0.04 0.44,0.04c0.72,0 1.47,-0.31 2.01,-1.6l-0.17,-0.18c-0.32,0.65 -0.8,1.53 -1.79,1.53c-0.13,0 -0.26,-0.02 -0.37,-0.04c0.31,-0.62 0.49,-1.29 0.49,-1.91c0,-0.84 -0.35,-1.29 -0.88,-1.29c-0.63,0 -1.18,0.59 -1.18,1.49c0,0.7 0.34,1.45 1.03,1.8c-0.37,0.69 -1.01,1.18 -1.54,1.18c-0.56,0 -0.77,-0.55 -0.77,-1.32c0,-1.17 0.5,-2.64 0.67,-2.95zm2.66,-5.08c0.04,0 0.05,0.03 0.05,0.11c0,0.71 -1.27,3.39 -2.56,4.42c0.65,-2.14 2.2,-4.53 2.51,-4.53zm-1.56,6.44c0,-0.58 0.26,-1.01 0.54,-1.01c0.26,0 0.46,0.41 0.46,1.05c0,0.5 -0.13,0.99 -0.32,1.41c-0.49,-0.32 -0.68,-0.95 -0.68,-1.45zm4.43,-1.36c1.65,-0.99 3.19,-4.03 3.19,-5.33c0,-0.4 -0.14,-0.89 -0.45,-0.89c-1.15,0 -4.35,6.44 -4.35,9.26c0,1.08 0.47,1.76 1.44,1.76c0.98,0 1.72,-0.7 2.23,-1.55c0.14,0.03 0.29,0.04 0.44,0.04c0.72,0 1.47,-0.31 2.01,-1.6l-0.17,-0.18c-0.32,0.65 -0.8,1.53 -1.79,1.53c-0.13,0 -0.26,-0.02 -0.37,-0.04c0.31,-0.62 0.49,-1.29 0.49,-1.91c0,-0.84 -0.35,-1.29 -0.88,-1.29c-0.63,0 -1.18,0.59 -1.18,1.49c0,0.7 0.34,1.45 1.03,1.8c-0.37,0.69 -1.01,1.18 -1.54,1.18c-0.56,0 -0.77,-0.55 -0.77,-1.32c0,-1.17 0.5,-2.64 0.67,-2.95zm2.66,-5.08c0.04,0 0.05,0.03 0.05,0.11c0,0.71 -1.27,3.39 -2.56,4.42c0.65,-2.14 2.2,-4.53 2.51,-4.53zm-1.56,6.44c0,-0.58 0.26,-1.01 0.54,-1.01c0.26,0 0.46,0.41 0.46,1.05c0,0.5 -0.13,0.99 -0.32,1.41c-0.49,-0.32 -0.68,-0.95 -0.68,-1.45zm7.82,-6.62c0,-0.4 -0.17,-1.04 -0.47,-1.04c-0.95,0 -4.35,6.37 -4.35,9.06c0,0.82 0.32,1.44 1.12,1.44c1.01,0 1.89,-0.98 2.63,-2.58l-0.21,-0.11c-0.49,1.09 -1.27,2.24 -2.01,2.24c-0.41,0 -0.62,-0.35 -0.62,-1.08c0,-0.42 0.07,-0.91 0.18,-1.41c2.05,-1.69 3.73,-5.28 3.73,-6.52zm-0.54,0.09c0.05,0 0.1,0.05 0.1,0.23c0,0.94 -1.54,4.09 -3.16,5.72c0.77,-2.7 2.69,-5.95 3.06,-5.95zm3.22,4.76c0,-0.68 -0.43,-0.85 -0.86,-0.85c-1.66,0 -3.56,2.37 -3.56,4.03c0,0.91 0.57,1.63 1.71,1.63c1.38,0 2.84,-1.08 3.6,-2.76l-0.17,-0.13c-0.7,1.35 -1.95,2.48 -3.14,2.48c-0.87,0 -1.1,-0.6 -1.1,-1.18c0,-0.14 0.01,-0.32 0.05,-0.5c1.6,-0.15 3.47,-1.29 3.47,-2.72zm-0.91,-0.42c0.24,0 0.3,0.12 0.3,0.33c0,1.2 -1.79,2.19 -2.79,2.54c0.38,-1.33 1.6,-2.87 2.49,-2.87zm5.49,0.48c0.04,-0.01 0.17,-0.11 0.17,-0.28c0,-0.24 -0.22,-0.45 -0.76,-0.45c-1.51,0 -3.71,1.68 -3.71,3.63c0,0.81 0.38,1.36 1.05,1.36c0.79,0 1.57,-0.77 2.29,-1.8c-0.23,0.91 -0.47,1.67 -0.72,2.31c-1.17,0.59 -2.73,1.33 -2.73,2.47c0,0.57 0.41,0.81 0.81,0.81c1.05,0 1.95,-1.53 2.73,-3.42c0.87,-0.42 2.19,-1.37 2.62,-2.63l-0.18,-0.14c-0.42,1.07 -1.37,1.93 -2.28,2.37c0.64,-1.67 1.08,-3.38 1.08,-3.84c-0.12,-0.03 -0.21,-0.04 -0.3,-0.04c-0.46,0 -0.66,0.45 -0.71,0.71l-0.17,0.75c-0.71,1.02 -1.54,1.84 -2.07,1.84c-0.3,0 -0.49,-0.23 -0.49,-0.68c0,-1.18 1.34,-3.18 2.81,-3.18c0.28,0 0.46,0.07 0.56,0.21zm-3.64,7.6c-0.19,0 -0.33,-0.19 -0.33,-0.49c0,-0.8 1.03,-1.4 2.14,-1.96c-0.74,1.79 -1.44,2.45 -1.81,2.45zm5.11,-5.01c0.3,-0.5 0.81,-1.58 1.25,-2.69c0.35,0.25 0.78,0.46 0.78,1.07c0,0.74 -0.77,1.79 -0.77,2.61c0,0.55 0.39,0.91 1.02,0.91c1.19,0 2.4,-1.26 2.93,-2.45l-0.18,-0.14c-0.35,0.82 -1.5,2.09 -2.38,2.09c-0.23,0 -0.42,-0.08 -0.42,-0.42c0,-0.59 0.7,-1.51 0.7,-2.37c0,-1.19 -1.43,-1.42 -1.43,-1.94c0,-0.06 0.15,-0.42 0.15,-0.52c0,-0.1 0,-0.34 -0.19,-0.34c-0.16,0 -0.59,0.4 -0.59,0.96c0,0.14 0.06,0.25 0.14,0.33c-0.41,1.19 -0.88,2.17 -1.13,2.66l0.12,0.24zm8.67,-1.43c-0.69,1.01 -2.07,3.05 -2.94,3.05c-0.25,0 -0.38,-0.16 -0.38,-0.54c0,-1.36 1.57,-3.96 2.88,-3.96c0.51,0 0.69,0.36 0.69,0.78c0,0.15 -0.03,0.34 -0.07,0.49c0.41,0 0.69,-0.14 0.69,-0.6c0,-0.63 -0.55,-1.05 -1.28,-1.05c-1.82,0 -3.88,2.63 -3.88,4.3c0,0.78 0.45,1.16 1.04,1.16c0.69,0 1.3,-0.55 2.11,-1.63c-0.02,0.16 -0.04,0.3 -0.04,0.41c0,0.49 0.32,0.98 1.01,0.98c0.99,0 2.18,-1.04 2.77,-2.55l-0.14,-0.14c-0.84,1.49 -1.73,2.21 -2.24,2.21c-0.33,0 -0.47,-0.33 -0.47,-0.61c0,-0.67 0.81,-1.63 0.81,-1.95c0,-0.21 -0.39,-0.32 -0.56,-0.35zm5.82,3.28c0.18,-0.38 0.38,-0.86 0.67,-1.3c0.87,-1.33 1.38,-2.09 1.84,-2.09c0.21,0 0.4,0.14 0.4,0.5c0,0.55 -0.42,1.31 -0.42,1.99c0,0.56 0.28,1.02 0.94,1.02c1.12,0 1.98,-1.33 2.42,-2.5l-0.16,-0.2c-0.44,0.95 -1.11,2.21 -1.88,2.21c-0.32,0 -0.42,-0.22 -0.42,-0.47c0,-0.59 0.52,-1.6 0.52,-2.34c0,-0.48 -0.21,-0.9 -0.8,-0.9c-0.95,0 -1.74,1.1 -2.32,2.16c0.15,-0.38 0.43,-1.26 0.43,-1.97c0,-0.58 -0.18,-1.07 -0.76,-1.07c-1,0 -2.19,1.47 -2.95,2.66c0.21,-0.7 0.36,-1.34 0.36,-1.59c0,-0.23 -0.12,-0.37 -0.37,-0.37c-0.27,0 -0.54,0.17 -0.65,0.3c-0.01,1.23 -0.96,3.52 -0.96,3.73c0,0.14 0.49,0.3 0.75,0.3c0.69,-1.89 2.37,-4.1 3.18,-4.1c0.25,0 0.35,0.21 0.35,0.53c0,0.98 -0.88,2.97 -0.88,3.22c0,0.19 0.49,0.28 0.71,0.28z"/>
  </g>
 </g>
</svg>